<?xml version="1.0" encoding="UTF-8"?>
<svg xmlns="http://www.w3.org/2000/svg" version="1.1" viewBox="0 0 2456 2500">
  <defs>
    <style>
      .cls-1 {
        fill: #94dcff;
      }

      .cls-1, .cls-2, .cls-3, .cls-4, .cls-5, .cls-6 {
        stroke-width: 0px;
      }

      .cls-2, .cls-3 {
        fill: #2c5976;
      }

      .cls-2, .cls-5, .cls-6 {
        fill-rule: evenodd;
      }

      .cls-4 {
        fill: #fff;
      }

      .cls-7 {
        display: none;
      }

      .cls-5 {
        fill: #2c5a77;
      }

      .cls-6 {
        fill: none;
      }
    </style>
  </defs>
  <g id="Layer_2" data-name="Layer 2" class="cls-7">
    <rect class="cls-1" x="-273.33" width="3012" height="2500"/>
  </g>
  <g id="Layer_1" data-name="Layer 1">
    <rect class="cls-4" x="96.36" y="103.33" width="2268.97" height="2288.82" rx="338.78" ry="338.78"/>
    <path class="cls-2" d="M2096.12,815.9h-126.13c-.89,1.72-1.99,2.86-1.99,4-.1,21.02-.07,42.04-.07,63,3.23,3.95,7.85,4.65,11.91,6.23,43.38,16.88,86.79,33.66,130.2,50.47,14.61,5.66,29.22,11.28,43.82,16.97,2.34.91,4.58,2.1,6.77,3.12-.35,1.13-.4,1.61-.63,1.98-.23.36-.61.67-.99.89-.76.46-1.54.87-2.35,1.25-1.62.76-3.26,1.48-4.89,2.21-79.71,35.56-159.41,71.12-239.11,106.69-.81.36-1.58.84-2.33,1.32-.37.24-.67.59-1.04.93,1.03,3.65,4.48,3.86,7.11,5.04,51.06,22.88,102.13,45.73,153.21,68.56,26.56,11.88,53.14,23.71,79.69,35.6,2.42,1.08,4.75,2.37,8.24,4.13-4.46,2.3-7.86,4.27-11.43,5.86-42.93,19.12-85.9,38.17-128.84,57.25-33.13,14.72-66.27,29.43-99.36,44.25-3.12,1.39-7.05,1.8-9,6.21,11.8,5.34,23.58,10.7,35.39,16.01,11.84,5.33,23.7,10.61,35.55,15.89,11.86,5.28,23.72,10.54,35.58,15.81,11.45,5.09,22.91,10.18,34.35,15.29,11.85,5.29,23.7,10.6,35.55,15.9,11.85,5.29,23.8,10.39,35.54,15.92,11.62,5.47,23.99,9.47,35.98,17.17-17.5,8.71-34.4,15.65-51.04,23.16-16.73,7.55-33.5,14.99-50.26,22.47-17.17,7.66-34.33,15.33-51.5,22.97-16.77,7.46-33.6,14.78-50.3,22.38-16.61,7.56-33.51,14.5-49.66,22.54.12,4.18,3.34,4.53,5.42,5.64,16.19,8.64,32.5,17.06,48.74,25.61,3.52,1.85,6.93,3.95,10.41,5.94,1.34,12.98.48,25.51.63,38,.16,12.99.03,25.98.03,38.97v36.67c3.47,4.25,7.3,3.05,10.7,3.06,34.04.09,68.08.04,102.12.08,4.38,0,8.75.31,13.47.5,1.74,5.42,1,10.35,1.01,15.15.06,59.12.04,118.25.04,177.37,0,15.68-.14,31.35.03,47.03.64,60.3-19.6,113.19-57.02,159.81-34.21,42.63-78.02,72.07-128.65,91.69-37.5,14.53-76.41,22.18-116.7,22.34-3.58.01-7.17.01-10.75.01-389.68,0-779.36,0-1169.04,0-17.47,0-34.89-.38-52.25-2.94-75.09-11.07-140.38-41.69-192.59-97.56-32.77-35.07-54.72-76.16-64.19-123.51-2.46-12.3-4.23-24.71-4.27-37.3-.02-4.93-.05-9.85-.05-14.78,0-447.91.02-895.82-.08-1343.73,0-21.17,1.7-42.04,7-62.53,13.06-50.44,39.55-92.81,78.07-127.58,43.49-39.25,94.47-64.25,151.43-77.17,24.53-5.56,49.45-7.91,74.63-7.91,391.02.04,782.05.02,1173.08.04,80.41,0,152.24,25.07,214.88,75.36,41.93,33.66,71.27,76.37,86.81,128.13,6.08,20.25,9.6,40.97,9.62,62.16.08,80.18.06,160.35.05,240.53,0,2.61-.27,5.22-.5,9.45ZM1758.95,1074.59c16.66-7.52,32.94-14.91,49.26-22.23,62.07-27.86,124.16-55.68,186.2-83.61,2.07-.94,5.18-1.03,5.85-4.76-4.09-1.76-8.13-3.61-12.25-5.24-19.98-7.9-40-15.7-59.97-23.62-2.84-1.12-5.51-2.67-8.57-4.17v-13.77c0-30.01.04-60.02-.06-90.03,0-3.41,1.13-7.19-2.6-11.11-20.59-.14-42.02-.05-63.44-.07-21.44-.02-42.89,0-66,0-.2-5.98-.46-10.38-.46-14.78-.03-40.76-.02-81.52-.02-122.28,0-32.25.03-64.5-.04-96.75,0-3.43,1.02-7.22-2.45-10.33-2.34-.12-5.01-.36-7.67-.36-387.45.09-774.89.19-1162.34.3-.44,0-.92.1-1.3.3-.38.2-.66.58-.86.76-.44.95-1.11,1.73-1.11,2.51-.12,447.47-.19,894.95-.24,1342.42,0,1.73.43,3.47.66,5.21,1.5.57,2.73,1.45,3.96,1.45,388.79.09,777.59.13,1166.38.1,1.23,0,2.47-.83,4.03-1.39,1.8-4.71.93-9.66.94-14.47.07-69.43.05-138.86.05-208.29,0-4.03-.05-8.07.05-12.09.05-2.16-.28-4.53,2.81-6.7,3.48-.08,7.89-.26,12.3-.26,35.84-.02,71.67.02,107.5-.07,3.43,0,7.14,1,11.04-2.02,1.06-7.45.34-15.47.46-23.44.12-7.61.1-15.23,0-22.84-.1-8.01.45-16.05-.45-24.27-2.9-1.79-5.44-3.56-8.16-5-15.45-8.13-30.94-16.19-46.42-24.26-31.36-16.34-62.75-32.65-94.07-49.06-3.06-1.6-6.91-2.39-8.45-6.71,3.55-1.75,7.09-3.63,10.74-5.25,29.04-12.92,58.11-25.77,87.15-38.66,46.23-20.52,92.46-41.04,138.67-61.6,2.2-.98,5.12-1.29,5.51-5.1-41.14-18.51-82.38-36.99-123.55-55.6-41.12-18.59-82.44-36.75-123.57-55.86,4.59-3.08,8.09-4.81,11.91-6.92,74.38-33.25,148.93-66.56,223.32-99.79,4.29-1.92,9.13-3.02,13-7.22-3.67-1.8-6.81-3.46-10.04-4.91-33.12-14.76-66.25-29.49-99.37-44.23"/>
    <path class="cls-6" d="M912.02,1656.32c-.36-3.16-.73-4.91-.73-6.66-.03-43,.05-85.99-.13-128.99-.02-5.22,1.81-9.53,3.88-14.01,9.58-20.75,10.94-42.34,5.49-64.27-9.84-39.65-53.25-81.97-115.21-65.7-48.82,12.82-84.72,65.95-62.03,125.52,2.79,7.32,4.34,14.31,4.31,22.02-.14,43.89-.18,87.78.03,131.67.04,8.91.69,17.92,2.11,26.71,7.39,45.64,30.34,81.77,67.96,108.41,27.86,19.72,59.23,29.08,93.27,29.5,14.78.18,29.56.04,44.34.04,173.77,0,347.55-.03,521.32.07,12.15,0,24.26-.62,36.09-2.98,88-17.57,133.37-93.08,133.15-158.52-.37-110.18-.1-220.35-.1-330.53,0-11.23-.93-22.35-3.42-33.33-14.31-63.21-62.58-110.5-123.81-124.55-14.52-3.33-29.25-3.84-44.05-3.84-175.57,0-351.13,0-526.7,0-4.03,0-8.07.14-12.09-.06-2.57-.12-5.12-.74-8.35-1.25-.04-5.36-.1-10.25-.1-15.14,0-97.64,0-195.27,0-292.91,0-3.58-.12-7.17.08-10.75.12-2.08.78-4.13,1.32-6.81h16.58c172.88,0,345.76,0,518.64,0,3.58,0,7.17-.09,10.74.06,2.12.09,4.23.57,6.92.95.17,4.99.45,9.38.46,13.77.03,38.97-.06,77.93.08,116.89.03,8.16-1.1,15.75-4.29,23.44-7.8,18.79-8.23,38.36-3.43,57.99,10.31,42.23,57.66,84.53,120.16,64.97,50.68-15.86,79.63-72.9,55.86-127.38-3.15-7.22-4.71-14.15-4.68-21.92.18-42.55.05-85.09.1-127.64.02-14.39-1.11-28.6-5-42.53-15.93-57.01-52.89-94.24-107.88-114.25-17.41-6.34-35.59-8.24-54.13-8.23-182.73.12-365.46.07-548.2.07-3.13,0-6.27.06-9.4.05-10.37-.02-20.57,1.56-30.55,4.05-77.92,19.47-128.2,86.28-127.13,160.93.21,14.78.03,29.56.03,44.34,0,93.16.05,186.31-.06,279.47-.02,12.61.73,25.14,3.76,37.33,15.48,62.22,54.84,102.02,115.24,121.8,16.38,5.37,33.34,6.18,50.43,6.18,176.46-.04,352.92-.03,529.38-.02,4.48,0,8.96-.07,13.44.09,1.71.06,3.4.68,5.33,1.09,1.54,5.07.93,10.01.93,14.87.04,98.08.03,196.17.03,294.25,0,3.14.04,6.27-.04,9.4-.06,2.21.01,4.52-2.22,5.9-16.43,1.64-446.56,2.31-558.77.86-2.61-.03-5.23-.25-8.96-.44Z"/>
    <path class="cls-5" d="M912.02,1656.32c3.74.19,6.35.41,8.96.44,112.22,1.45,542.35.78,558.77-.86,2.23-1.39,2.17-3.7,2.22-5.9.08-3.13.04-6.27.04-9.4,0-98.08,0-196.17-.03-294.25,0-4.86.6-9.8-.93-14.87-1.93-.41-3.62-1.03-5.33-1.09-4.47-.16-8.95-.09-13.44-.09-176.46,0-352.92-.02-529.38.02-17.09,0-34.05-.81-50.43-6.18-60.39-19.78-99.76-59.58-115.24-121.8-3.03-12.19-3.78-24.71-3.76-37.33.12-93.16.06-186.31.06-279.47,0-14.78.18-29.56-.03-44.34-1.08-74.65,49.21-141.46,127.13-160.93,9.98-2.49,20.19-4.06,30.55-4.05,3.14,0,6.27-.05,9.4-.05,182.73,0,365.46.05,548.2-.07,18.54-.01,36.72,1.89,54.13,8.23,54.99,20.02,91.95,57.24,107.88,114.25,3.89,13.93,5.02,28.14,5,42.53-.05,42.55.08,85.1-.1,127.64-.03,7.77,1.53,14.7,4.68,21.92,23.77,54.48-5.18,111.52-55.86,127.38-62.49,19.56-109.84-22.74-120.16-64.97-4.8-19.63-4.37-39.2,3.43-57.99,3.19-7.7,4.33-15.29,4.29-23.44-.14-38.96-.05-77.93-.08-116.89,0-4.39-.29-8.78-.46-13.77-2.69-.39-4.8-.86-6.92-.95-3.58-.15-7.16-.06-10.74-.06-172.88,0-345.76,0-518.64,0h-16.58c-.54,2.69-1.2,4.73-1.32,6.81-.21,3.57-.08,7.16-.08,10.75,0,97.64,0,195.27,0,292.91,0,4.89.06,9.78.1,15.14,3.24.5,5.78,1.12,8.35,1.25,4.02.2,8.06.06,12.09.06,175.56,0,351.13,0,526.7,0,14.8,0,29.53.51,44.05,3.84,61.23,14.06,109.5,61.34,123.81,124.55,2.49,10.98,3.42,22.1,3.42,33.33,0,110.18-.27,220.35.1,330.53.22,65.44-45.15,140.95-133.15,158.52-11.83,2.36-23.94,2.99-36.09,2.98-173.77-.1-347.55-.07-521.32-.07-14.78,0-29.56.15-44.34-.04-34.05-.42-65.42-9.78-93.27-29.5-37.62-26.64-60.57-62.77-67.96-108.41-1.42-8.79-2.07-17.8-2.11-26.71-.21-43.89-.17-87.78-.03-131.67.02-7.72-1.53-14.71-4.31-22.02-22.69-59.57,13.21-112.7,62.03-125.52,61.95-16.27,105.37,26.05,115.21,65.7,5.44,21.93,4.08,43.52-5.49,64.27-2.07,4.48-3.9,8.79-3.88,14.01.18,42.99.1,85.99.13,128.99,0,1.75.37,3.49.73,6.66ZM1526.2,1031.69c.03.37.04,3.08.52,5.71,5.01,27.6,36.94,42.87,61.08,25.12,19.4-14.27,22.24-42.35,6.52-60.63-14.8-17.22-39.67-18.35-55.9-2.57-8.49,8.24-12.6,18.24-12.21,32.37ZM829.94,1507.26c12.82.43,23.19-4.97,30.88-15.27,10.72-14.35,11.21-29.99,3.26-45.45-6.28-12.21-16.79-19.33-30.94-20.56-21.26-1.84-38.5,13.98-41.83,33.6-4.59,27.13,17.11,48.69,38.62,47.67Z"/>
    <path class="cls-6" d="M1526.2,1031.69c-.39-14.13,3.73-24.13,12.21-32.37,16.24-15.78,41.1-14.65,55.9,2.57,15.71,18.28,12.88,46.36-6.52,60.63-24.13,17.75-56.07,2.48-61.08-25.12-.48-2.62-.48-5.33-.52-5.71Z"/>
    <path class="cls-6" d="M829.94,1507.26c-21.51,1.01-43.22-20.54-38.62-47.67,3.32-19.62,20.57-35.45,41.83-33.6,14.14,1.23,24.66,8.35,30.94,20.56,7.95,15.46,7.46,31.1-3.26,45.45-7.69,10.3-18.07,15.71-30.88,15.27Z"/>
    <path class="cls-3" d="M2186.89,384.68h-52.8c-12.27,0-22.07-3.53-29.4-10.6-7.34-7.06-11-16.6-11-28.6v-57.2c0-12,3.6-21.46,10.8-28.4,7.2-6.93,17.06-10.4,29.6-10.4h52.8c12.26,0,22,3.47,29.2,10.4,7.2,6.94,10.8,16.4,10.8,28.4v57.2c0,12-3.6,21.54-10.8,28.6-7.2,7.07-16.94,10.6-29.2,10.6ZM2137.29,368.28h46c17.6,0,26.4-8.8,26.4-26.4v-50c0-17.6-8.8-26.4-26.4-26.4h-46c-17.34,0-26,8.8-26,26.4v50c0,17.6,8.66,26.4,26,26.4ZM2136.49,348.68v-63.6c0-2.4.4-4.06,1.2-5,.8-.93,2.53-1.4,5.2-1.4h24c13.33,0,20,6.14,20,18.4v13.2c0,8.54-2.94,14-8.8,16.4l9.2,20c2.66,5.34,1.33,8-4,8h-4c-2.94,0-5.07-1.46-6.4-4.4l-10.4-22.8h-10.8v21.2c0,2.4-.4,4-1.2,4.8-.8.8-2.4,1.2-4.8,1.2h-2.8c-2.67,0-4.4-.4-5.2-1.2-.8-.8-1.2-2.4-1.2-4.8ZM2165.69,292.68h-14v22h14c3.73,0,5.6-1.86,5.6-5.6v-11.2c0-3.46-1.87-5.2-5.6-5.2Z"/>
  </g>
</svg>